<svg width="724" height="217" viewBox="0 0 724 217" fill="none" xmlns="http://www.w3.org/2000/svg">
<path d="M0.944458 169.975C0.944458 165.764 4.35829 162.35 8.56946 162.35C12.7806 162.35 16.1945 165.764 16.1945 169.975V216.361H0.944458V169.975Z" fill="white"/>
<path d="M21.9081 133.021C21.9081 128.81 25.322 125.396 29.5331 125.396C33.7443 125.396 37.1581 128.81 37.1581 133.021V216.361H21.9081V133.021Z" fill="#22DBBA"/>
<path d="M77.1945 81.8531C77.1945 77.642 80.6083 74.2281 84.8195 74.2281C89.0306 74.2281 92.4445 77.642 92.4445 81.8531V216.361H77.1945V81.8531Z" fill="white"/>
<path d="M98.1584 155.762C98.1584 151.551 101.572 148.137 105.783 148.137C109.995 148.137 113.408 151.551 113.408 155.762V216.361H98.1584V155.762Z" fill="#22DBBA"/>
<path d="M153.445 113.122C153.445 108.911 156.858 105.497 161.07 105.497C165.281 105.497 168.695 108.911 168.695 113.122V216.361H153.445V113.122Z" fill="white"/>
<path d="M174.409 187.031C174.409 182.82 177.822 179.406 182.034 179.406C186.245 179.406 189.659 182.82 189.659 187.031V216.361H174.409V187.031Z" fill="#22DBBA"/>
<path d="M229.694 113.122C229.694 108.911 233.108 105.497 237.319 105.497C241.531 105.497 244.944 108.911 244.944 113.122V216.361H229.694V113.122Z" fill="white"/>
<path d="M250.659 81.8531C250.659 77.6419 254.073 74.2281 258.284 74.2281C262.495 74.2281 265.909 77.6419 265.909 81.8531V216.361H250.659V81.8531Z" fill="#22DBBA"/>
<path d="M305.944 7.94415C305.944 3.73298 309.358 0.319153 313.569 0.319153C317.781 0.319153 321.194 3.73298 321.194 7.94415V216.361H305.944V7.94415Z" fill="white"/>
<path d="M326.909 113.122C326.909 108.911 330.323 105.497 334.534 105.497C338.745 105.497 342.159 108.911 342.159 113.122V216.361H326.909V113.122Z" fill="#22DBBA"/>
<path d="M382.194 81.8531C382.194 77.642 385.608 74.2281 389.819 74.2281C394.031 74.2281 397.444 77.642 397.444 81.8531V216.361H382.194V81.8531Z" fill="white"/>
<path d="M403.159 113.122C403.159 108.911 406.573 105.497 410.784 105.497C414.995 105.497 418.409 108.911 418.409 113.122V216.361H403.159V113.122Z" fill="#22DBBA"/>
<path d="M458.444 155.762C458.444 151.551 461.858 148.137 466.069 148.137C470.281 148.137 473.694 151.551 473.694 155.762V216.361H458.444V155.762Z" fill="white"/>
<path d="M479.408 81.8531C479.408 77.6419 482.822 74.2281 487.033 74.2281C491.244 74.2281 494.658 77.6419 494.658 81.8531V216.361H479.408V81.8531Z" fill="#22DBBA"/>
<path d="M534.694 44.8986C534.694 40.6875 538.108 37.2736 542.319 37.2736C546.531 37.2736 549.944 40.6874 549.944 44.8986V216.361H534.694V44.8986Z" fill="white"/>
<path d="M555.658 113.122C555.658 108.911 559.072 105.497 563.283 105.497C567.495 105.497 570.908 108.911 570.908 113.122V216.361H555.658V113.122Z" fill="#22DBBA"/>
<path d="M610.944 81.8531C610.944 77.642 614.358 74.2281 618.569 74.2281C622.781 74.2281 626.194 77.642 626.194 81.8531V216.361H610.944V81.8531Z" fill="white"/>
<path d="M631.909 204.087C631.909 199.876 635.323 196.462 639.534 196.462C643.745 196.462 647.159 199.876 647.159 204.087V216.361H631.909V204.087Z" fill="#22DBBA"/>
<path d="M687.194 155.762C687.194 151.551 690.608 148.137 694.819 148.137C699.031 148.137 702.444 151.551 702.444 155.762V216.361H687.194V155.762Z" fill="white"/>
<path d="M708.159 33.528C708.159 29.3168 711.573 25.903 715.784 25.903C719.995 25.903 723.409 29.3168 723.409 33.528V216.361H708.159V33.528Z" fill="#22DBBA"/>
</svg>
