<svg width="181" height="180" viewBox="0 0 181 180" fill="none" xmlns="http://www.w3.org/2000/svg">
<path fill-rule="evenodd" clip-rule="evenodd" d="M0.996239 90.2088C0.996243 40.6224 41.194 0.424686 90.7804 0.42469C140.367 0.424694 180.564 40.6224 180.564 90.2088C180.564 139.795 140.367 179.993 90.7803 179.993C41.1939 179.993 0.996235 139.795 0.996239 90.2088ZM136.999 90.2088C136.999 64.6832 116.306 43.9905 90.7804 43.9905C65.2547 43.9905 44.5621 64.6832 44.5621 90.2088C44.5621 115.734 65.2547 136.427 90.7803 136.427C116.306 136.427 136.999 115.734 136.999 90.2088ZM90.7804 9.75291C46.3458 9.7529 10.3245 45.7742 10.3245 90.2088C10.3245 134.643 46.3458 170.665 90.7803 170.665C135.215 170.665 171.236 134.643 171.236 90.2088C171.236 45.7742 135.215 9.75291 90.7804 9.75291ZM90.7804 34.6623C121.458 34.6623 146.327 59.5313 146.327 90.2088C146.327 120.886 121.458 145.755 90.7803 145.755C60.1029 145.755 35.2339 120.886 35.2339 90.2088C35.2339 59.5313 60.1029 34.6623 90.7804 34.6623Z" fill="#2F363D"/>
</svg>
