<svg width="187" height="190" viewBox="0 0 187 190" fill="none" xmlns="http://www.w3.org/2000/svg">
<path d="M16.327 90.2089C16.327 45.7743 52.3483 9.753 96.7829 9.753C141.217 9.75301 177.239 45.7743 177.239 90.2089C177.239 134.643 141.217 170.665 96.7829 170.665C52.3483 170.665 16.327 134.643 16.327 90.2089ZM152.329 90.2089C152.329 59.5314 127.46 34.6624 96.7829 34.6624C66.1054 34.6624 41.2364 59.5314 41.2364 90.2089C41.2364 120.886 66.1054 145.755 96.7829 145.755C127.46 145.755 152.329 120.886 152.329 90.2089Z" fill="#3C65F5"/>
<path fill-rule="evenodd" clip-rule="evenodd" d="M6.99624 90.2088C6.99624 40.6224 47.194 0.424684 96.7804 0.424688C146.367 0.424693 186.564 40.6224 186.564 90.2088C186.564 139.795 146.367 179.993 96.7803 179.993C47.1939 179.993 6.99623 139.795 6.99624 90.2088ZM142.999 90.2088C142.999 64.6832 122.306 43.9906 96.7804 43.9906C71.2547 43.9905 50.5621 64.6832 50.5621 90.2088C50.5621 115.734 71.2547 136.427 96.7803 136.427C122.306 136.427 142.999 115.734 142.999 90.2088ZM96.7804 9.75291C52.3458 9.7529 16.3245 45.7742 16.3245 90.2088C16.3245 134.643 52.3458 170.665 96.7803 170.665C141.215 170.665 177.236 134.643 177.236 90.2088C177.236 45.7742 141.215 9.75291 96.7804 9.75291ZM96.7804 34.6623C127.458 34.6623 152.327 59.5313 152.327 90.2088C152.327 120.886 127.458 145.755 96.7803 145.755C66.1029 145.755 41.2339 120.886 41.2339 90.2088C41.2339 59.5313 66.1029 34.6623 96.7804 34.6623Z" fill="#2F363D"/>
<path d="M96.7804 170.665C82.6769 170.665 68.8212 166.957 56.6022 159.914C44.3832 152.871 34.2302 142.74 27.161 130.536C20.0919 118.332 16.3549 104.485 16.3247 90.3812C16.2945 76.2778 19.9721 62.4141 26.9889 50.1801C34.0058 37.946 44.1152 27.7714 56.304 20.6761C68.4927 13.5808 82.3324 9.81414 96.4358 9.75373C110.539 9.69332 124.411 13.3413 136.66 20.3319C148.909 27.3225 159.105 37.4102 166.226 49.5837L144.726 62.1614C139.809 53.7568 132.77 46.7923 124.313 41.966C115.856 37.1398 106.279 34.6212 96.5424 34.6629C86.8055 34.7047 77.2507 37.3051 68.8356 42.2037C60.4206 47.1023 53.441 54.1268 48.5966 62.5731C43.7522 71.0195 41.2132 80.5909 41.2341 90.3279C41.2549 100.065 43.8349 109.625 48.7154 118.051C53.596 126.476 60.6055 133.471 69.0415 138.333C77.4774 143.196 87.0434 145.755 96.7804 145.755L96.7804 170.665Z" fill="#FF4F4F"/>
<path fill-rule="evenodd" clip-rule="evenodd" d="M106.108 179.993L96.7802 179.993C81.0415 179.993 65.5794 175.856 51.9437 167.996C38.308 160.137 26.9778 148.831 19.0891 135.212C11.2003 121.593 7.03001 106.14 6.99632 90.4011C6.96259 74.6625 11.0666 59.1915 18.897 45.539C26.7274 31.8865 38.009 20.5322 51.6109 12.6142C65.2128 4.69628 80.6571 0.492927 96.3956 0.425515C112.134 0.358087 127.614 4.42898 141.283 12.2301C154.952 20.0312 166.331 31.2885 174.278 44.8734L178.988 52.9251L141.384 74.9232L136.674 66.8714C132.583 59.8783 126.726 54.0834 119.689 50.0676C112.652 46.0519 104.684 43.9563 96.5822 43.991C88.4805 44.0257 80.5302 46.1894 73.5284 50.2654C66.5265 54.3413 60.7191 60.1862 56.6882 67.2141C52.6574 74.242 50.5447 82.206 50.5621 90.3078C50.5794 98.4096 52.7262 106.364 56.7871 113.375C60.848 120.386 66.6804 126.206 73.6997 130.251C80.7189 134.297 88.6784 136.427 96.7802 136.427L106.108 136.427L106.108 179.993ZM144.716 62.145C139.8 53.7478 132.764 46.7891 124.313 41.966C115.856 37.1397 106.279 34.6211 96.5423 34.6628C86.8054 34.7046 77.2505 37.305 68.8354 42.2036C60.4204 47.1022 53.4408 54.1267 48.5964 62.5731C43.7521 71.0194 41.213 80.5908 41.2339 90.3278C41.2547 100.065 43.8347 109.625 48.7153 118.051C53.5958 126.476 60.6054 133.471 69.0413 138.333C77.4773 143.196 87.0432 145.755 96.7802 145.755L96.7802 170.665C93.6536 170.665 90.5391 170.482 87.452 170.122C76.6138 168.857 66.1122 165.396 56.602 159.914C44.383 152.871 34.23 142.74 27.1609 130.536C20.0917 118.332 16.3547 104.485 16.3245 90.3811C16.2943 76.2777 19.9719 62.414 26.9888 50.18C34.0056 37.9459 44.1151 27.7713 56.3038 20.676C68.4925 13.5807 82.3322 9.81406 96.4356 9.75364C110.539 9.69323 124.41 13.3412 136.659 20.3318C146.193 25.7726 154.483 33.0896 161.048 41.8058C162.913 44.283 164.64 46.8732 166.216 49.5655C166.219 49.5715 166.223 49.5775 166.226 49.5836L144.725 62.1613C144.722 62.1559 144.719 62.1504 144.716 62.145Z" fill="#2F363D"/>
<path d="M96.7803 170.665C79.143 170.665 61.9944 164.869 47.9731 154.17C33.9518 143.471 23.8348 128.46 19.1786 111.449C14.5225 94.4373 15.5853 76.367 22.2035 60.0186C28.8217 43.6701 40.6286 29.9494 55.8075 20.9675L68.4928 42.4049C58.0134 48.6059 49.8619 58.0787 45.2927 69.3656C40.7235 80.6525 39.9898 93.1281 43.2044 104.873C46.419 116.618 53.4037 126.981 63.084 134.367C72.7643 141.754 84.6036 145.755 96.7803 145.755L96.7803 170.665Z" fill="#1BD344"/>
<path fill-rule="evenodd" clip-rule="evenodd" d="M106.111 179.993L96.7826 179.993C77.1005 179.993 57.9636 173.525 42.3167 161.586C26.6697 149.646 15.3797 132.895 10.1837 113.911C4.9877 94.9274 6.17372 74.7621 13.5593 56.5182C20.9448 38.2742 34.1206 22.9627 51.0594 12.9394L59.0874 8.18888L81.2736 45.6823L73.2456 50.4328C64.5261 55.5924 57.7435 63.4744 53.9417 72.8659C50.1398 82.2573 49.5293 92.6378 52.204 102.41C54.8787 112.183 60.6905 120.805 68.7451 126.952C76.7997 133.098 86.6508 136.427 96.7826 136.427L106.111 136.427L106.111 179.993ZM68.4952 42.4048C58.0157 48.6058 49.8643 58.0786 45.2951 69.3655C40.7259 80.6524 39.9921 93.1281 43.2067 104.873C46.4213 116.617 53.4061 126.981 63.0863 134.367C72.7666 141.754 84.6059 145.755 96.7826 145.755L96.7826 170.665C93.6529 170.665 90.5386 170.482 87.4544 170.122C73.1579 168.453 59.5087 162.971 47.9755 154.17C33.9542 143.471 23.8371 128.46 19.181 111.449C14.5248 94.4372 15.5876 76.3669 22.2059 60.0185C27.6497 46.5711 36.6041 34.9015 48.0581 26.1847C50.5291 24.3042 53.1164 22.5612 55.8098 20.9674L68.4952 42.4048Z" fill="#2F363D"/>
<path d="M94.4509 179.993C81.6457 179.993 69.0054 177.104 57.4716 171.541C45.9379 165.978 35.8079 157.884 27.8363 147.863C19.8646 137.841 14.2567 126.15 11.4303 113.661C8.60387 101.172 8.63174 88.2053 11.5118 75.7281L54.1512 85.5705C52.7518 91.6332 52.7382 97.9334 54.1116 104.002C55.4849 110.071 58.2098 115.751 62.0832 120.62C65.9566 125.49 70.8787 129.422 76.4829 132.125C82.0871 134.829 88.2289 136.232 94.4509 136.232L94.4509 179.993Z" fill="#FFF742"/>
<path fill-rule="evenodd" clip-rule="evenodd" d="M103.776 189.321L94.4481 189.321C80.2396 189.321 66.2141 186.115 53.4163 179.942C40.6186 173.77 29.3785 164.789 20.5333 153.669C11.688 142.55 5.46555 129.578 2.32938 115.72C-0.806808 101.862 -0.775885 87.4744 2.41984 73.6299L4.51791 64.5406L65.3357 78.5792L63.2376 87.6684C62.1538 92.3636 62.1433 97.2429 63.2069 101.943C64.2705 106.643 66.3808 111.042 69.3806 114.813C72.3804 118.584 76.1924 121.63 80.5326 123.723C84.8728 125.817 89.6294 126.904 94.4482 126.904L103.776 126.904L103.776 189.321ZM54.1437 85.5908C52.749 91.6471 52.737 97.94 54.1088 104.002C55.4822 110.07 58.207 115.751 62.0804 120.62C65.9538 125.489 70.8759 129.422 76.4801 132.125C82.0843 134.828 88.2261 136.232 94.4482 136.232L94.4481 179.993C91.3244 179.993 88.2104 179.821 85.1199 179.48C75.5417 178.424 66.189 175.746 57.4689 171.54C45.9351 165.977 35.8052 157.884 27.8335 147.862C19.8619 137.841 14.254 126.15 11.4275 113.661C9.29058 104.218 8.78522 94.5028 9.91054 84.9324C10.2721 81.8578 10.8019 78.7982 11.5 75.7673C11.503 75.7542 11.506 75.7411 11.5091 75.7279L54.1484 85.5703C54.1468 85.5771 54.1453 85.584 54.1437 85.5908Z" fill="#2F363D"/>
</svg>
